<svg width="18" height="20" viewBox="0 0 18 20" fill="none" xmlns="http://www.w3.org/2000/svg">
<path d="M17.9059 6.39388C17.9059 5.64388 17.3744 4.72343 16.725 4.34843L10.6124 0.819336C9.96276 0.444336 8.89994 0.444336 8.25058 0.819336L2.13794 4.34843C1.4883 4.72343 0.957031 5.64388 0.957031 6.39388V13.4521C0.957031 14.2021 1.4883 15.1225 2.13794 15.4975L8.25058 19.0272C8.90021 19.4022 9.96276 19.4022 10.6124 19.0272L16.725 15.4978C17.3744 15.1228 17.9059 14.2023 17.9059 13.4523V6.39388ZM12.9761 10.0817L11.6019 10.8745C11.4559 10.9593 11.217 10.9593 11.0711 10.8745L9.69685 10.0817C9.55094 9.99688 9.43149 9.79043 9.43149 9.62134V8.03488C9.43149 7.86661 9.55094 7.65934 9.69685 7.57506L11.0711 6.7817C11.217 6.69743 11.4559 6.69743 11.6019 6.7817L12.9761 7.57506C13.122 7.65934 13.2415 7.86634 13.2415 8.03488V9.62134C13.2415 9.79015 13.122 9.99688 12.9761 10.0817Z" fill="#56AB47"/>
</svg>
